# xmcd
#
# Track frame offsets:
#	195
#	13141
#	25699
#	42801
#	54421
#	66317
#	80505
#	93498
#	104266
#	120667
#	135454
#	150407
#
# Disc length: 2149 seconds
#
# Revision: 0
# Processed by: cddbd v1.4PL0 Copyright (c) Steve Scherf et al.
# Submitted via: OrangeCD 4.1
#
DISCID=9008630c
DTITLE=Lynn Anderson - Rose Garden
DYEAR=1900
DGENRE=
TTITLE0=Rose Garden
TTITLE1=Stand By Your Man
TTITLE2=Blue Bayou
TTITLE3=Listen To A Country Song
TTITLE4=Rodeo Cowboy
TTITLE5=Two Doors Down
TTITLE6=Top Of The World
TTITLE7=Heaven's Just A Sin Away
TTITLE8=Devil Went Down To Georgia
TTITLE9=Gone At Last
TTITLE10=Faithless Love
TTITLE11=Someday Soon
EXTD=
EXTT0=
EXTT1=
EXTT2=
EXTT3=
EXTT4=
EXTT5=
EXTT6=
EXTT7=
EXTT8=
EXTT9=
EXTT10=
EXTT11=
PLAYORDER=
